<?xml version="1.0" encoding="utf-8"?>
<!-- Generator: Adobe Illustrator 16.2.0, SVG Export Plug-In . SVG Version: 6.00 Build 0)  -->
<!DOCTYPE svg PUBLIC "-//W3C//DTD SVG 1.1//EN" "http://www.w3.org/Graphics/SVG/1.1/DTD/svg11.dtd">
<svg version="1.1" xmlns="http://www.w3.org/2000/svg" xmlns:xlink="http://www.w3.org/1999/xlink" x="0px" y="0px" width="160px"
	 height="90px" viewBox="0 0 160 90" enable-background="new 0 0 160 90" xml:space="preserve">
<g id="Layer_3">
	<rect x="-3" y="-2" fill="#E6E6E6" width="165" height="94"/>
</g>
<g id="Layer_1">
	<g>
		<line id="slash" fill="none" stroke="#BDD2E5" stroke-width="4" x1="-13.253" y1="100.495" x2="33.236" y2="63.78"/>
		<circle fill="#648DB2" cx="9.786" cy="81.514" r="21.655"/>
		<path id="_x32_013_squiggle_2_" fill="none" stroke="#BDD2E5" stroke-width="4" d="M-13.032,79.88
			c0.124,0.388,1.513,4.052,5.918,3.899c5.995-0.208,6.311-10.942,12.048-10.931c4.772,0.011,5.315,4.347,5.18,6.788
			c-0.353,6.397-1.293,11.562,5.382,11.879c3.425,0,4.648-3.561,5.594-5.815c2.729-6.39,3.968-8.514,7.297-8.407
			c3.709,0.118,4.046,3.85,4.473,4.391"/>
		<circle id="circle" fill="none" stroke="#BDD2E5" stroke-width="4" cx="9.844" cy="81.649" r="22.735"/>
	</g>
	<g>
		<path fill="#BDD2E5" d="M42.612,81.263l-1.331,0.708c-0.21-0.425-0.47-0.637-0.78-0.637c-0.148,0-0.274,0.049-0.379,0.146
			s-0.157,0.223-0.157,0.375c0,0.268,0.31,0.531,0.93,0.794c0.854,0.367,1.429,0.705,1.725,1.015
			c0.295,0.31,0.443,0.727,0.443,1.251c0,0.672-0.248,1.234-0.744,1.687c-0.482,0.43-1.064,0.644-1.746,0.644
			c-1.169,0-1.997-0.57-2.483-1.71l1.374-0.637c0.191,0.334,0.336,0.546,0.437,0.637c0.196,0.181,0.429,0.271,0.701,0.271
			c0.544,0,0.816-0.248,0.816-0.744c0-0.286-0.21-0.554-0.63-0.802c-0.162-0.081-0.324-0.159-0.486-0.236
			c-0.163-0.076-0.327-0.154-0.494-0.235c-0.467-0.229-0.796-0.458-0.987-0.688c-0.243-0.291-0.365-0.665-0.365-1.123
			c0-0.606,0.208-1.107,0.623-1.503c0.424-0.396,0.939-0.595,1.545-0.595C41.514,79.881,42.178,80.342,42.612,81.263z"/>
		<path fill="#BDD2E5" d="M45.415,80.074v4.001c0,1.154,0.456,1.731,1.367,1.731c0.912,0,1.367-0.577,1.367-1.731v-4.001h1.61v4.036
			c0,0.559-0.069,1.041-0.208,1.446c-0.133,0.362-0.365,0.689-0.694,0.98c-0.544,0.472-1.236,0.708-2.076,0.708
			c-0.835,0-1.524-0.236-2.068-0.708c-0.334-0.291-0.57-0.618-0.708-0.98c-0.134-0.324-0.201-0.807-0.201-1.446v-4.036H45.415z"/>
		<path fill="#BDD2E5" d="M56.227,74.957h1.617v12.088h-1.617v-0.729c-0.635,0.62-1.353,0.93-2.154,0.93
			c-0.954,0-1.746-0.348-2.376-1.045c-0.625-0.711-0.938-1.598-0.938-2.662c0-1.04,0.312-1.908,0.938-2.604
			c0.62-0.702,1.4-1.053,2.34-1.053c0.816,0,1.546,0.334,2.19,1.002V74.957z M52.405,83.538c0,0.668,0.179,1.212,0.537,1.632
			c0.368,0.425,0.83,0.637,1.389,0.637c0.596,0,1.078-0.205,1.445-0.615c0.368-0.425,0.551-0.964,0.551-1.617
			c0-0.654-0.184-1.193-0.551-1.617c-0.367-0.415-0.844-0.623-1.431-0.623c-0.554,0-1.016,0.21-1.388,0.63
			C52.588,82.389,52.405,82.913,52.405,83.538z"/>
		<path fill="#BDD2E5" d="M58.843,83.51c0-1.007,0.36-1.863,1.081-2.569s1.598-1.06,2.634-1.06c1.04,0,1.922,0.355,2.648,1.066
			c0.715,0.711,1.073,1.584,1.073,2.619c0,1.045-0.36,1.921-1.081,2.627c-0.725,0.701-1.615,1.052-2.669,1.052
			c-1.045,0-1.92-0.357-2.626-1.073C59.196,85.466,58.843,84.578,58.843,83.51z M60.489,83.538c0,0.696,0.186,1.248,0.558,1.653
			c0.382,0.41,0.885,0.615,1.51,0.615c0.63,0,1.133-0.202,1.51-0.608c0.377-0.405,0.565-0.946,0.565-1.624s-0.188-1.219-0.565-1.625
			c-0.381-0.41-0.885-0.615-1.51-0.615c-0.616,0-1.114,0.205-1.496,0.615C60.68,82.359,60.489,82.89,60.489,83.538z"/>
		<path fill="#BDD2E5" d="M66.562,86.243c0-0.267,0.098-0.498,0.293-0.694c0.195-0.195,0.43-0.293,0.701-0.293
			s0.506,0.098,0.701,0.293c0.195,0.196,0.293,0.43,0.293,0.702c0,0.276-0.098,0.513-0.293,0.708
			c-0.191,0.19-0.424,0.286-0.701,0.286c-0.281,0-0.518-0.096-0.709-0.286C66.658,86.769,66.562,86.529,66.562,86.243z"/>
		<path fill="#BDD2E5" d="M70.824,81.577v5.468h-1.61v-5.468h-0.688v-1.503h0.688V77.52h1.61v2.555h1.252v1.503H70.824z"/>
		<path fill="#BDD2E5" d="M74.345,80.074l1.804,3.915l1.796-3.915h1.812l-3.622,7.45l-3.592-7.45H74.345z"/>
	</g>
</g>
<g id="Layer_2">
	<g>
		<path d="M31.513,32.29c-0.589,0.221-1.258,0.332-2.006,0.332c-0.907,0-1.708-0.167-2.406-0.501
			c-0.697-0.334-1.281-0.791-1.751-1.369c-0.47-0.578-0.827-1.252-1.071-2.023c-0.244-0.771-0.366-1.586-0.366-2.448
			s0.122-1.677,0.366-2.448c0.244-0.771,0.601-1.445,1.071-2.023s1.054-1.037,1.751-1.377c0.697-0.34,1.499-0.51,2.406-0.51
			c0.906,0,1.708,0.17,2.405,0.51s1.281,0.799,1.751,1.377s0.827,1.252,1.071,2.023c0.244,0.771,0.366,1.587,0.366,2.448
			c0,0.963-0.147,1.867-0.442,2.711c-0.295,0.844-0.748,1.561-1.36,2.15l1.955,1.326l-0.17,0.238l-2.006-1.343
			C32.624,31.76,32.102,32.069,31.513,32.29z M30.816,29.426l2.193,1.513c0.555-0.544,0.983-1.207,1.283-1.989
			c0.3-0.782,0.456-1.672,0.468-2.669c-0.012-0.873-0.139-1.677-0.383-2.414s-0.589-1.371-1.037-1.904
			c-0.448-0.532-0.995-0.949-1.641-1.25c-0.646-0.3-1.377-0.45-2.193-0.45c-0.816,0-1.547,0.15-2.193,0.45
			c-0.646,0.301-1.193,0.717-1.64,1.25c-0.448,0.533-0.793,1.167-1.037,1.904c-0.244,0.737-0.372,1.542-0.383,2.414
			c0.011,0.873,0.139,1.677,0.383,2.414c0.244,0.737,0.589,1.371,1.037,1.904c0.447,0.533,0.994,0.949,1.64,1.25
			s1.377,0.451,2.193,0.451c0.657,0,1.258-0.099,1.802-0.298c0.544-0.198,1.031-0.479,1.462-0.841l-2.142-1.462L30.816,29.426z"/>
		<path d="M45.453,20.211v7.616c0,1.632-0.38,2.839-1.139,3.621c-0.759,0.782-1.864,1.173-3.315,1.173s-2.556-0.391-3.315-1.173
			c-0.76-0.782-1.139-1.989-1.139-3.621v-7.616h0.34v7.616c0,1.462,0.334,2.573,1.003,3.332c0.668,0.759,1.706,1.139,3.111,1.139
			s2.442-0.38,3.111-1.139c0.668-0.759,1.003-1.87,1.003-3.332v-7.616H45.453z"/>
		<path d="M47.628,20.211V32.35h-0.34V20.211H47.628z"/>
		<path d="M59.223,29.621c-0.283,0.618-0.649,1.147-1.096,1.589c-0.448,0.442-0.978,0.788-1.589,1.037
			c-0.612,0.249-1.304,0.374-2.074,0.374c-0.805,0-1.544-0.156-2.219-0.467s-1.252-0.742-1.734-1.292s-0.858-1.207-1.13-1.972
			s-0.408-1.601-0.408-2.507c0-0.737,0.105-1.488,0.314-2.253c0.21-0.765,0.542-1.459,0.995-2.082
			c0.453-0.624,1.042-1.133,1.768-1.53c0.725-0.396,1.604-0.595,2.635-0.595c0.804,0,1.507,0.133,2.108,0.399
			c0.601,0.266,1.102,0.601,1.504,1.003s0.706,0.83,0.91,1.283c0.204,0.454,0.312,0.867,0.323,1.241h-0.34
			c-0.034-0.442-0.165-0.875-0.391-1.3c-0.227-0.425-0.536-0.808-0.926-1.148c-0.391-0.34-0.856-0.614-1.394-0.824
			c-0.539-0.209-1.137-0.314-1.793-0.314c-0.998,0-1.839,0.201-2.525,0.604s-1.238,0.907-1.657,1.513
			c-0.419,0.606-0.723,1.267-0.91,1.98c-0.187,0.714-0.28,1.389-0.28,2.023c0,0.771,0.113,1.513,0.34,2.227
			c0.227,0.714,0.561,1.343,1.003,1.887s0.983,0.98,1.624,1.309s1.369,0.493,2.185,0.493c0.725,0,1.377-0.119,1.955-0.357
			c0.578-0.238,1.077-0.566,1.496-0.986c0.419-0.419,0.759-0.918,1.02-1.496c0.26-0.578,0.436-1.201,0.527-1.87h0.34
			C59.699,28.327,59.506,29.003,59.223,29.621z"/>
		<path d="M61.449,32.35h-0.34V20.211h0.34v7.378l8.415-7.378h0.51l-5.865,5.168l6.205,6.97h-0.459l-6.018-6.766l-2.788,2.465V32.35
			z"/>
		<path d="M71.53,20.211V32.35h-0.34V20.211H71.53z"/>
		<path d="M81.492,32.01v0.34h-8.126V20.211h8.058v0.34h-7.718v5.304h7.259v0.34h-7.259v5.814H81.492z"/>
		<path d="M87.221,32.35V20.211h4.914c1.166,0,2.073,0.278,2.719,0.833c0.646,0.556,0.97,1.383,0.97,2.482
			c0,0.533-0.097,1.006-0.289,1.42s-0.459,0.759-0.799,1.037c-0.341,0.278-0.745,0.488-1.216,0.629s-0.988,0.212-1.555,0.212h-4.404
			v5.525H87.221z M92.135,26.484c0.476,0,0.918-0.065,1.326-0.195c0.407-0.13,0.762-0.323,1.062-0.578
			c0.299-0.255,0.535-0.563,0.705-0.926s0.255-0.782,0.255-1.258c0-0.963-0.274-1.7-0.825-2.21c-0.549-0.51-1.391-0.765-2.523-0.765
			h-4.574v5.933H92.135z"/>
		<path d="M104.408,32.35h-7.43V20.211h0.34V32.01h7.09V32.35z"/>
		<path d="M104.425,32.35h-0.374l4.913-12.138h0.442L114.2,32.35h-0.375l-1.597-3.995h-6.189L104.425,32.35z M109.201,20.552h-0.033
			l-2.992,7.463h5.916L109.201,20.552z"/>
		<path d="M123.04,20.211l-4.913,7.021v5.117h-0.34v-5.117l-4.896-7.021h0.425l4.642,6.664l4.675-6.664H123.04z"/>
		<path d="M131.573,32.01v0.34h-8.126V20.211h8.058v0.34h-7.718v5.304h7.259v0.34h-7.259v5.814H131.573z"/>
		<path d="M132.576,32.35V20.211h4.964c1.27,0,2.199,0.252,2.788,0.757s0.896,1.289,0.918,2.354
			c0.022,0.816-0.192,1.493-0.646,2.031c-0.454,0.539-1.105,0.904-1.955,1.097v0.034c0.51,0.068,0.923,0.19,1.24,0.366
			s0.562,0.405,0.731,0.688c0.17,0.284,0.283,0.618,0.34,1.003c0.057,0.386,0.085,0.822,0.085,1.309c0,0.17,0.006,0.382,0.018,0.638
			c0.011,0.255,0.027,0.507,0.051,0.756c0.022,0.25,0.051,0.476,0.085,0.68c0.034,0.204,0.079,0.346,0.136,0.425h-0.374
			c-0.057-0.125-0.102-0.292-0.136-0.501c-0.034-0.209-0.06-0.434-0.076-0.671c-0.018-0.238-0.029-0.479-0.034-0.723
			c-0.006-0.244-0.009-0.461-0.009-0.654c0-0.499-0.037-0.944-0.11-1.334c-0.074-0.391-0.224-0.72-0.45-0.986
			c-0.228-0.266-0.55-0.47-0.97-0.612c-0.419-0.142-0.98-0.212-1.683-0.212h-4.573v5.695H132.576z M137.455,26.314
			c0.453,0,0.887-0.057,1.301-0.17c0.413-0.113,0.779-0.294,1.097-0.544c0.316-0.249,0.572-0.563,0.765-0.943
			s0.289-0.836,0.289-1.369c-0.012-0.861-0.272-1.533-0.782-2.015c-0.51-0.481-1.343-0.722-2.499-0.722h-4.709v5.763H137.455z"/>
	</g>
	<g>
		<path d="M29.539,34.035l-1.904,4.998h-0.154l-1.953-4.998h0.133l1.89,4.816h0.014l1.834-4.816H29.539z"/>
		<path d="M30.113,34.035v4.998h-0.14v-4.998H30.113z"/>
		<path d="M32.801,34.035c0.248,0,0.498,0.039,0.752,0.116c0.254,0.077,0.483,0.21,0.686,0.399s0.369,0.444,0.497,0.767
			c0.128,0.322,0.192,0.728,0.192,1.218c0,0.448-0.065,0.831-0.196,1.148c-0.131,0.317-0.306,0.575-0.525,0.773
			c-0.22,0.199-0.469,0.344-0.749,0.438c-0.28,0.094-0.572,0.14-0.875,0.14h-1.533v-4.998H32.801z M32.619,38.893
			c0.294,0,0.573-0.048,0.837-0.144c0.263-0.095,0.494-0.24,0.693-0.434c0.198-0.194,0.354-0.439,0.469-0.735
			s0.172-0.645,0.172-1.046c0-0.467-0.059-0.852-0.175-1.155c-0.117-0.304-0.271-0.545-0.462-0.725s-0.407-0.305-0.647-0.375
			c-0.24-0.07-0.486-0.105-0.739-0.105h-1.575v4.718H32.619z"/>
		<path d="M39.115,38.893v0.14h-3.346v-4.998h3.318v0.14h-3.178v2.184h2.989v0.14h-2.989v2.394H39.115z"/>
		<path d="M39.706,35.526c0.1-0.317,0.247-0.595,0.441-0.833c0.194-0.238,0.434-0.427,0.721-0.567c0.287-0.14,0.617-0.21,0.99-0.21
			c0.374,0,0.704,0.07,0.991,0.21c0.287,0.14,0.527,0.329,0.721,0.567c0.194,0.238,0.341,0.516,0.441,0.833
			c0.1,0.317,0.15,0.653,0.15,1.008s-0.05,0.691-0.15,1.008c-0.101,0.317-0.248,0.595-0.441,0.833
			c-0.193,0.238-0.434,0.426-0.721,0.563c-0.287,0.138-0.617,0.207-0.991,0.207c-0.373,0-0.703-0.069-0.99-0.207
			c-0.287-0.137-0.527-0.325-0.721-0.563c-0.194-0.238-0.341-0.516-0.441-0.833c-0.101-0.317-0.15-0.653-0.15-1.008
			S39.605,35.844,39.706,35.526z M39.853,37.528c0.1,0.303,0.243,0.564,0.427,0.784c0.184,0.22,0.409,0.391,0.675,0.515
			s0.567,0.186,0.903,0.186s0.637-0.062,0.903-0.186c0.266-0.124,0.491-0.295,0.675-0.515c0.185-0.219,0.327-0.48,0.427-0.784
			c0.1-0.303,0.152-0.635,0.157-0.994c-0.005-0.359-0.057-0.69-0.157-0.994c-0.101-0.303-0.243-0.564-0.427-0.784
			s-0.41-0.391-0.675-0.515c-0.266-0.124-0.567-0.186-0.903-0.186s-0.637,0.062-0.903,0.186s-0.491,0.295-0.675,0.515
			c-0.185,0.219-0.327,0.48-0.427,0.784c-0.101,0.304-0.153,0.635-0.158,0.994C39.7,36.894,39.752,37.225,39.853,37.528z"/>
		<path d="M47.276,34.035l3.416,4.823h0.014v-4.823h0.14v4.998h-0.21l-3.416-4.823h-0.014v4.823h-0.14v-4.998H47.276z"/>
		<path d="M51.781,35.526c0.1-0.317,0.247-0.595,0.441-0.833c0.194-0.238,0.434-0.427,0.721-0.567c0.287-0.14,0.617-0.21,0.99-0.21
			c0.374,0,0.704,0.07,0.991,0.21c0.287,0.14,0.527,0.329,0.721,0.567c0.194,0.238,0.341,0.516,0.441,0.833
			c0.1,0.317,0.15,0.653,0.15,1.008s-0.05,0.691-0.15,1.008c-0.101,0.317-0.248,0.595-0.441,0.833
			c-0.193,0.238-0.434,0.426-0.721,0.563c-0.287,0.138-0.617,0.207-0.991,0.207c-0.373,0-0.703-0.069-0.99-0.207
			c-0.287-0.137-0.527-0.325-0.721-0.563c-0.194-0.238-0.341-0.516-0.441-0.833c-0.101-0.317-0.15-0.653-0.15-1.008
			S51.681,35.844,51.781,35.526z M51.928,37.528c0.1,0.303,0.243,0.564,0.427,0.784c0.184,0.22,0.409,0.391,0.675,0.515
			s0.567,0.186,0.903,0.186s0.637-0.062,0.903-0.186c0.266-0.124,0.491-0.295,0.675-0.515c0.185-0.219,0.327-0.48,0.427-0.784
			c0.1-0.303,0.152-0.635,0.157-0.994c-0.005-0.359-0.057-0.69-0.157-0.994c-0.101-0.303-0.243-0.564-0.427-0.784
			s-0.41-0.391-0.675-0.515c-0.266-0.124-0.567-0.186-0.903-0.186s-0.637,0.062-0.903,0.186s-0.491,0.295-0.675,0.515
			c-0.185,0.219-0.327,0.48-0.427,0.784c-0.101,0.304-0.153,0.635-0.158,0.994C51.775,36.894,51.828,37.225,51.928,37.528z"/>
		<path d="M56.524,34.035h3.731v0.14h-1.799v4.858h-0.14v-4.858h-1.792V34.035z"/>
		<path d="M62.523,39.033h-0.154l2.023-4.998h0.182l1.974,4.998h-0.154l-0.658-1.645h-2.548L62.523,39.033z M64.49,34.175h-0.014
			l-1.232,3.073h2.436L64.49,34.175z"/>
		<path d="M70.16,34.035l-1.904,4.998h-0.154l-1.953-4.998h0.133l1.89,4.816h0.014l1.834-4.816H70.16z"/>
		<path d="M69.908,39.033h-0.154l2.023-4.998h0.182l1.974,4.998h-0.154l-0.658-1.645h-2.548L69.908,39.033z M71.875,34.175H71.86
			l-1.232,3.073h2.436L71.875,34.175z"/>
		<path d="M74.556,34.035v4.998h-0.14v-4.998H74.556z"/>
		<path d="M78.553,39.033h-3.059v-4.998h0.14v4.858h2.919V39.033z"/>
		<path d="M78.742,39.033h-0.154l2.023-4.998h0.182l1.974,4.998h-0.153l-0.658-1.645h-2.548L78.742,39.033z M80.708,34.175h-0.014
			l-1.232,3.073h2.436L80.708,34.175z"/>
		<path d="M85.35,34.035c0.195,0,0.379,0.026,0.549,0.077c0.171,0.051,0.32,0.129,0.449,0.234c0.128,0.105,0.229,0.234,0.301,0.389
			c0.072,0.154,0.107,0.336,0.107,0.546c0,0.149-0.026,0.292-0.08,0.427c-0.053,0.136-0.127,0.254-0.221,0.357
			c-0.093,0.103-0.203,0.185-0.332,0.248s-0.27,0.1-0.424,0.109v0.014c0.164,0.005,0.318,0.036,0.466,0.095
			c0.147,0.058,0.275,0.14,0.386,0.245c0.109,0.105,0.196,0.233,0.262,0.385c0.065,0.152,0.098,0.323,0.098,0.515
			c0,0.224-0.041,0.421-0.122,0.591s-0.194,0.312-0.339,0.424c-0.146,0.112-0.319,0.197-0.521,0.255
			c-0.203,0.058-0.424,0.087-0.662,0.087h-2.064v-4.998H85.35z M85.35,36.359c0.168,0,0.328-0.022,0.479-0.067
			c0.151-0.044,0.286-0.112,0.402-0.203c0.116-0.091,0.21-0.204,0.28-0.34c0.07-0.135,0.105-0.292,0.105-0.469
			c0-0.191-0.033-0.356-0.099-0.494s-0.155-0.252-0.27-0.343c-0.114-0.091-0.249-0.159-0.402-0.203
			c-0.154-0.044-0.319-0.066-0.497-0.066h-2.009v2.184H85.35z M85.328,38.893c0.205,0,0.396-0.024,0.57-0.073
			c0.176-0.049,0.327-0.124,0.455-0.224c0.129-0.1,0.23-0.226,0.305-0.378c0.075-0.152,0.112-0.33,0.112-0.536
			c0-0.219-0.041-0.403-0.122-0.553c-0.082-0.149-0.189-0.271-0.322-0.364s-0.285-0.161-0.455-0.203s-0.344-0.063-0.521-0.063
			h-2.009v2.394H85.328z"/>
		<path d="M90.768,39.033h-3.059v-4.998h0.14v4.858h2.919V39.033z"/>
		<path d="M94.604,38.893v0.14h-3.346v-4.998h3.317v0.14h-3.178v2.184h2.989v0.14h-2.989v2.394H94.604z"/>
		<path d="M97.467,34.035v4.998h-0.141v-4.998H97.467z"/>
		<path d="M98.614,34.035l3.416,4.823h0.015v-4.823h0.14v4.998h-0.21l-3.416-4.823h-0.014v4.823h-0.141v-4.998H98.614z"/>
		<path d="M108.596,38.893v0.14h-3.346v-4.998h3.318v0.14h-3.178v2.184h2.988v0.14h-2.988v2.394H108.596z"/>
		<path d="M110.941,34.035c0.247,0,0.498,0.039,0.752,0.116c0.254,0.077,0.482,0.21,0.686,0.399s0.369,0.444,0.498,0.767
			c0.128,0.322,0.191,0.728,0.191,1.218c0,0.448-0.064,0.831-0.195,1.148s-0.306,0.575-0.525,0.773
			c-0.219,0.199-0.469,0.344-0.748,0.438c-0.281,0.094-0.572,0.14-0.875,0.14h-1.533v-4.998H110.941z M110.759,38.893
			c0.294,0,0.573-0.048,0.837-0.144c0.264-0.095,0.494-0.24,0.693-0.434c0.197-0.194,0.354-0.439,0.469-0.735
			c0.113-0.296,0.172-0.645,0.172-1.046c0-0.467-0.059-0.852-0.176-1.155c-0.117-0.304-0.271-0.545-0.462-0.725
			s-0.407-0.305-0.647-0.375c-0.24-0.07-0.486-0.105-0.738-0.105h-1.575v4.718H110.759z"/>
		<path d="M114.05,34.035v4.998h-0.141v-4.998H114.05z"/>
		<path d="M114.497,34.035h3.731v0.14h-1.799v4.858h-0.141v-4.858h-1.792V34.035z"/>
		<path d="M125.501,34.035v4.998h-0.14V34.21h-0.015l-2.121,4.823h-0.153l-2.121-4.823h-0.015v4.823h-0.14v-4.998h0.231l2.113,4.816
			h0.015l2.113-4.816H125.501z"/>
		<path d="M126.435,35.526c0.101-0.317,0.248-0.595,0.441-0.833c0.193-0.238,0.434-0.427,0.721-0.567
			c0.287-0.14,0.617-0.21,0.991-0.21c0.373,0,0.703,0.07,0.99,0.21c0.287,0.14,0.527,0.329,0.721,0.567
			c0.193,0.238,0.341,0.516,0.441,0.833s0.15,0.653,0.15,1.008s-0.05,0.691-0.15,1.008c-0.101,0.317-0.248,0.595-0.441,0.833
			c-0.193,0.238-0.434,0.426-0.721,0.563c-0.287,0.138-0.617,0.207-0.99,0.207c-0.374,0-0.704-0.069-0.991-0.207
			c-0.287-0.137-0.527-0.325-0.721-0.563c-0.193-0.238-0.341-0.516-0.441-0.833c-0.1-0.317-0.15-0.653-0.15-1.008
			S126.335,35.844,126.435,35.526z M126.582,37.528c0.101,0.303,0.242,0.564,0.427,0.784c0.185,0.22,0.41,0.391,0.676,0.515
			s0.567,0.186,0.903,0.186s0.637-0.062,0.902-0.186c0.267-0.124,0.491-0.295,0.676-0.515c0.185-0.219,0.326-0.48,0.427-0.784
			s0.153-0.635,0.158-0.994c-0.005-0.359-0.058-0.69-0.158-0.994c-0.101-0.303-0.242-0.564-0.427-0.784s-0.409-0.391-0.676-0.515
			c-0.266-0.124-0.566-0.186-0.902-0.186s-0.638,0.062-0.903,0.186s-0.491,0.295-0.676,0.515s-0.326,0.48-0.427,0.784
			c-0.101,0.304-0.153,0.635-0.157,0.994C126.429,36.894,126.481,37.225,126.582,37.528z"/>
		<path d="M133.418,34.035c0.247,0,0.498,0.039,0.753,0.116c0.254,0.077,0.482,0.21,0.686,0.399s0.369,0.444,0.497,0.767
			c0.128,0.322,0.192,0.728,0.192,1.218c0,0.448-0.065,0.831-0.196,1.148c-0.13,0.317-0.306,0.575-0.524,0.773
			c-0.22,0.199-0.469,0.344-0.749,0.438c-0.28,0.094-0.572,0.14-0.875,0.14h-1.533v-4.998H133.418z M133.236,38.893
			c0.294,0,0.572-0.048,0.836-0.144c0.264-0.095,0.495-0.24,0.693-0.434c0.198-0.194,0.354-0.439,0.469-0.735
			s0.172-0.645,0.172-1.046c0-0.467-0.059-0.852-0.175-1.155c-0.117-0.304-0.271-0.545-0.463-0.725s-0.406-0.305-0.647-0.375
			c-0.24-0.07-0.486-0.105-0.738-0.105h-1.575v4.718H133.236z"/>
		<path d="M139.731,38.893v0.14h-3.346v-4.998h3.318v0.14h-3.179v2.184h2.989v0.14h-2.989v2.394H139.731z"/>
	</g>
</g>
</svg>
