<?xml version="1.0" standalone="no"?>
<!DOCTYPE svg PUBLIC "-//W3C//DTD SVG 20010904//EN"
 "http://www.w3.org/TR/2001/REC-SVG-20010904/DTD/svg10.dtd">
<svg version="1.0" xmlns="http://www.w3.org/2000/svg"
 width="2048.000000pt" height="1144.000000pt" viewBox="0 0 2048.000000 1144.000000"
 preserveAspectRatio="xMidYMid meet">
<metadata>
Created by potrace 1.11, written by Peter Selinger 2001-2013
</metadata>
<g transform="translate(0.000000,1144.000000) scale(0.100000,-0.100000)"
fill="#000000" stroke="none">
<path d="M1269 10533 c-1 -201 -3 -241 -13 -213 l-11 35 -122 1 -123 1 0 -452
c0 -493 1 -505 57 -526 16 -6 324 -8 794 -7 l768 3 23 23 23 23 3 468 3 469
-103 -1 c-58 -1 -106 -6 -110 -12 -4 -5 -9 -26 -10 -45 -1 -19 -5 80 -8 220
l-5 255 -582 3 -583 2 -1 -247z m652 202 c90 -47 37 -172 -69 -163 l-37 3 -3
74 c-2 41 -1 80 2 88 7 18 70 17 107 -2z m331 -12 c40 -39 39 -92 -3 -127 -17
-14 -42 -26 -56 -26 -36 0 -83 51 -83 90 0 22 9 41 29 61 38 37 76 38 113 2z
m136 -357 c-1 -94 -3 -153 -5 -131 -6 69 -10 72 -49 34 -23 -23 -33 -40 -30
-53 4 -14 2 -16 -7 -7 -20 20 -47 13 -47 -12 0 -15 -9 -29 -24 -37 -14 -7 -31
-26 -39 -42 l-14 -29 -16 25 c-25 38 -101 86 -157 99 -34 8 -50 17 -50 27 0
32 23 40 112 40 l88 0 20 40 c11 21 20 42 20 45 0 3 -58 5 -129 5 l-129 0 -61
-108 c-34 -60 -61 -113 -61 -119 0 -12 33 -23 70 -23 46 0 122 -34 151 -68 23
-26 29 -42 28 -75 -1 -30 -3 -36 -7 -19 -7 21 -10 19 -64 -34 -49 -48 -59 -54
-77 -45 -25 14 -77 14 -102 1 -26 -15 -25 -64 2 -84 25 -17 19 -47 -14 -65
-13 -7 -28 -21 -35 -32 -11 -18 -9 -19 45 -21 39 -1 -179 -13 -243 -13 -1 0
-4 87 -8 193 -4 132 -3 192 4 192 6 0 42 -18 81 -40 92 -52 119 -59 119 -31 0
16 -18 30 -81 62 -45 22 -79 42 -77 45 3 2 37 20 76 39 54 26 72 40 72 55 0
28 -11 26 -104 -25 -46 -24 -86 -42 -90 -38 -3 3 -6 100 -6 215 l0 209 420 -2
420 -1 -2 -172z m-883 14 c0 -11 -12 -15 -40 -16 -63 -2 -63 -3 -7 -30 62 -28
60 -43 -8 -63 -51 -15 -43 -31 16 -31 44 0 58 -12 28 -24 -9 -3 -40 -6 -69 -6
-65 0 -85 7 -85 29 0 11 18 23 51 36 28 11 53 23 55 27 3 4 -20 19 -50 32 -42
19 -56 30 -56 46 0 20 4 21 83 18 65 -2 82 -6 82 -18z"/>
<path d="M6280 10453 c-66 -24 -144 -107 -164 -173 -44 -148 13 -298 138 -362
91 -47 214 -31 295 38 153 131 124 396 -53 486 -55 28 -156 33 -216 11z m170
-33 c29 -15 45 -33 67 -77 26 -53 28 -67 28 -168 0 -99 -3 -116 -25 -160 -45
-86 -149 -120 -221 -72 -72 49 -105 142 -97 274 12 175 123 267 248 203z"/>
<path d="M7720 10453 c-66 -24 -144 -107 -164 -173 -44 -148 13 -298 138 -362
91 -47 214 -31 295 38 153 131 124 396 -53 486 -55 28 -156 33 -216 11z m170
-33 c29 -15 45 -33 67 -77 26 -53 28 -67 28 -168 0 -99 -3 -116 -25 -160 -45
-86 -149 -120 -221 -72 -72 49 -105 142 -97 274 12 175 123 267 248 203z"/>
<path d="M9120 10408 c-16 -34 -69 -153 -118 -263 -74 -168 -94 -204 -122
-222 l-33 -23 94 0 c90 1 93 1 62 15 -41 17 -42 41 -8 119 l25 57 112 -3 111
-3 23 -60 c31 -81 30 -93 -8 -110 -31 -13 -25 -14 87 -14 107 0 117 1 90 13
-17 7 -35 19 -42 27 -6 8 -58 129 -116 269 -57 140 -109 256 -116 258 -6 2
-25 -25 -41 -60z m17 -286 c-49 -1 -92 -1 -94 2 -3 2 17 53 44 113 l48 110 45
-111 46 -111 -89 -3z"/>
<path d="M10350 10408 c-16 -34 -69 -153 -118 -263 -74 -168 -94 -204 -122
-222 l-33 -23 94 0 c90 1 93 1 62 15 -41 17 -42 41 -8 119 l25 57 112 -3 111
-3 23 -60 c31 -81 30 -93 -8 -110 -31 -13 -25 -14 87 -14 107 0 117 1 90 13
-17 7 -35 19 -42 27 -6 8 -58 129 -116 269 -57 140 -109 256 -116 258 -6 2
-25 -25 -41 -60z m17 -286 c-49 -1 -92 -1 -94 2 -3 2 17 53 44 113 l48 110 45
-111 46 -111 -89 -3z"/>
<path d="M17020 10453 c-66 -24 -144 -107 -164 -173 -44 -148 13 -298 138
-362 91 -47 214 -31 295 38 153 131 124 396 -53 486 -55 28 -156 33 -216 11z
m170 -33 c29 -15 45 -33 67 -77 26 -53 28 -67 28 -168 0 -99 -3 -116 -25 -160
-45 -86 -149 -120 -221 -72 -72 49 -105 142 -97 274 12 175 123 267 248 203z"/>
<path d="M4077 10445 c17 -7 38 -24 46 -37 8 -13 63 -134 123 -270 59 -137
113 -248 120 -248 13 0 11 -5 124 290 46 118 88 221 94 229 6 8 25 22 41 33
l30 18 -95 -1 c-79 -1 -90 -3 -68 -12 16 -6 30 -19 33 -28 3 -10 -19 -85 -50
-166 -31 -81 -64 -167 -72 -191 -8 -24 -17 -42 -18 -40 -9 9 -157 357 -162
380 -5 24 -1 30 28 43 32 13 28 14 -86 14 -111 0 -118 -1 -88 -14z"/>
<path d="M4690 10453 c59 -11 60 -14 60 -273 0 -259 -1 -262 -60 -273 -14 -2
31 -4 100 -4 69 0 114 2 100 4 -59 11 -60 14 -60 273 0 259 1 262 60 273 14 2
-31 4 -100 4 -69 0 -114 -2 -100 -4z"/>
<path d="M4970 10453 c59 -12 60 -14 60 -273 0 -259 -1 -262 -60 -273 -14 -2
47 -5 135 -6 177 -1 242 10 304 53 133 93 150 309 33 425 -67 66 -96 73 -312
77 -102 1 -174 0 -160 -3z m315 -42 c112 -51 162 -186 120 -327 -32 -109 -159
-178 -272 -148 l-23 6 0 238 c0 269 -8 247 85 249 29 0 67 -7 90 -18z"/>
<path d="M5589 10450 c18 -4 37 -14 42 -22 5 -7 9 -119 9 -249 0 -258 -1 -261
-60 -272 -14 -2 76 -4 199 -3 l224 1 23 68 c12 37 19 67 15 67 -5 0 -20 -18
-35 -40 -40 -60 -70 -71 -184 -68 l-97 3 -3 123 -3 122 88 0 c48 0 95 -5 103
-10 8 -5 20 -24 27 -42 10 -29 11 -22 11 67 0 89 -1 96 -11 67 -7 -18 -19 -37
-27 -42 -8 -5 -54 -10 -102 -10 l-88 0 0 110 0 110 100 0 c116 0 145 -10 160
-56 7 -19 16 -34 21 -34 11 0 11 12 3 74 l-7 46 -221 -1 c-134 -1 -208 -4
-187 -9z"/>
<path d="M6890 10451 c0 -5 12 -11 28 -14 15 -3 40 -15 55 -27 l27 -21 0 -223
c0 -243 -1 -248 -60 -259 -14 -2 22 -4 80 -4 58 0 94 2 80 4 -58 11 -60 19
-60 230 l0 194 180 -218 c99 -120 185 -219 190 -221 6 -2 10 91 10 261 0 289
0 289 60 300 14 2 -22 4 -80 4 -58 0 -93 -2 -79 -4 56 -9 60 -22 57 -225 l-3
-185 -170 208 -169 209 -73 0 c-40 0 -73 -4 -73 -9z"/>
<path d="M8156 10414 c-8 -65 -8 -84 4 -84 6 0 10 11 10 25 0 14 11 37 25 50
20 21 34 25 85 25 l60 0 0 -243 c0 -266 -1 -269 -60 -280 -14 -2 31 -4 100 -4
69 0 114 2 100 4 -59 11 -60 14 -60 280 l0 243 56 0 c79 0 123 -28 124 -77 0
-13 5 -23 10 -23 12 0 12 19 4 84 l-7 46 -222 0 -222 0 -7 -46z"/>
<path d="M9507 10445 c17 -7 38 -24 46 -37 8 -13 63 -134 123 -270 59 -137
113 -248 120 -248 13 0 11 -5 124 290 46 118 88 221 94 229 6 8 25 22 41 33
l30 18 -95 -1 c-79 -1 -90 -3 -68 -12 16 -6 30 -19 33 -28 3 -10 -19 -85 -50
-166 -31 -81 -64 -167 -72 -191 -8 -24 -17 -42 -18 -40 -9 9 -157 357 -162
380 -5 24 -1 30 28 43 32 13 28 14 -86 14 -111 0 -118 -1 -88 -14z"/>
<path d="M10740 10453 c59 -11 60 -14 60 -273 0 -259 -1 -262 -60 -273 -14 -2
31 -4 100 -4 69 0 114 2 100 4 -59 11 -60 14 -60 273 0 259 1 262 60 273 14 2
-31 4 -100 4 -69 0 -114 -2 -100 -4z"/>
<path d="M11010 10453 c59 -12 60 -14 60 -273 0 -259 -1 -261 -60 -273 -14 -3
63 -4 170 -4 176 2 199 4 234 23 52 27 77 62 83 115 5 57 -21 101 -76 125
l-40 18 29 17 c89 54 75 181 -25 233 -36 19 -59 21 -220 23 -99 0 -169 -1
-155 -4z m284 -37 c54 -23 79 -62 73 -119 -7 -74 -28 -90 -132 -95 l-85 -5 0
111 c0 79 4 112 13 115 25 11 99 7 131 -7z m43 -269 c18 -10 39 -31 48 -47 46
-88 -23 -170 -142 -170 -96 0 -93 -3 -93 127 l0 116 78 -5 c44 -3 91 -12 109
-21z"/>
<path d="M11580 10453 c59 -11 60 -14 60 -273 0 -259 -1 -262 -60 -273 -14 -2
75 -5 197 -6 l222 -1 11 43 c6 23 13 50 16 60 2 9 7 27 10 38 10 36 -14 17
-39 -31 -32 -62 -71 -80 -172 -80 -50 0 -86 5 -93 12 -9 9 -12 77 -12 243 0
253 1 257 60 268 14 2 -31 4 -100 4 -69 0 -114 -2 -100 -4z"/>
<path d="M12109 10450 c18 -4 37 -14 42 -22 5 -7 9 -119 9 -249 0 -258 -1
-261 -60 -272 -14 -2 76 -4 199 -3 l224 1 23 68 c12 37 19 67 15 67 -5 0 -20
-18 -35 -40 -40 -60 -70 -71 -184 -68 l-97 3 -3 123 -3 122 88 0 c48 0 95 -5
103 -10 8 -5 20 -24 27 -42 10 -29 11 -22 11 67 0 89 -1 96 -11 67 -7 -18 -19
-37 -27 -42 -8 -5 -54 -10 -102 -10 l-88 0 0 110 0 110 100 0 c116 0 145 -10
160 -56 7 -19 16 -34 21 -34 11 0 11 12 3 74 l-7 46 -221 -1 c-134 -1 -208 -4
-187 -9z"/>
<path d="M12840 10453 c59 -11 60 -14 60 -273 0 -259 -1 -262 -60 -273 -14 -2
31 -4 100 -4 69 0 114 2 100 4 -59 11 -60 14 -60 273 0 259 1 262 60 273 14 2
-31 4 -100 4 -69 0 -114 -2 -100 -4z"/>
<path d="M13070 10451 c0 -5 12 -11 28 -14 15 -3 40 -15 55 -27 l27 -21 0
-223 c0 -243 -1 -248 -60 -259 -14 -2 22 -4 80 -4 58 0 94 2 80 4 -58 11 -60
19 -60 230 l0 194 180 -218 c99 -120 185 -219 190 -221 6 -2 10 91 10 261 0
289 0 289 60 300 14 2 -22 4 -80 4 -58 0 -93 -2 -79 -4 56 -9 60 -22 57 -225
l-3 -185 -170 208 -169 209 -73 0 c-40 0 -73 -4 -73 -9z"/>
<path d="M13949 10450 c18 -4 37 -14 42 -22 5 -7 9 -119 9 -249 0 -258 -1
-261 -60 -272 -14 -2 76 -4 199 -3 l224 1 23 68 c12 37 19 67 15 67 -5 0 -20
-18 -35 -40 -40 -60 -70 -71 -184 -68 l-97 3 -3 123 -3 122 88 0 c48 0 95 -5
103 -10 8 -5 20 -24 27 -42 10 -29 11 -22 11 67 0 89 -1 96 -11 67 -7 -18 -19
-37 -27 -42 -8 -5 -54 -10 -102 -10 l-88 0 0 110 0 110 100 0 c116 0 145 -10
160 -56 7 -19 16 -34 21 -34 11 0 11 12 3 74 l-7 46 -221 -1 c-134 -1 -208 -4
-187 -9z"/>
<path d="M14460 10453 c59 -12 60 -14 60 -273 0 -259 -1 -262 -60 -273 -14 -2
47 -5 135 -6 177 -1 242 10 304 53 133 93 150 309 33 425 -67 66 -96 73 -312
77 -102 1 -174 0 -160 -3z m315 -42 c112 -51 162 -186 120 -327 -32 -109 -159
-178 -272 -148 l-23 6 0 238 c0 269 -8 247 85 249 29 0 67 -7 90 -18z"/>
<path d="M15080 10453 c59 -11 60 -14 60 -273 0 -259 -1 -262 -60 -273 -14 -2
31 -4 100 -4 69 0 114 2 100 4 -59 11 -60 14 -60 273 0 259 1 262 60 273 14 2
-31 4 -100 4 -69 0 -114 -2 -100 -4z"/>
<path d="M15356 10414 c-8 -65 -8 -84 4 -84 6 0 10 11 10 25 0 14 11 37 25 50
20 21 34 25 85 25 l60 0 0 -243 c0 -266 -1 -269 -60 -280 -14 -2 31 -4 100 -4
69 0 114 2 100 4 -59 11 -60 14 -60 280 l0 243 56 0 c79 0 123 -28 124 -77 0
-13 5 -23 10 -23 12 0 12 19 4 84 l-7 46 -222 0 -222 0 -7 -46z"/>
<path d="M16085 10449 c53 -16 55 -23 55 -274 0 -253 -1 -257 -60 -268 -14 -2
22 -4 80 -5 73 0 95 2 71 8 -18 4 -37 14 -42 22 -8 12 -13 436 -5 427 2 -2 50
-103 106 -224 56 -121 106 -224 111 -229 5 -5 56 89 123 225 l114 234 1 -211
c1 -230 0 -236 -59 -247 -14 -2 31 -4 100 -4 69 0 114 2 100 4 -59 11 -60 14
-60 273 0 259 1 262 60 273 14 2 -12 5 -58 6 l-83 1 -105 -217 -105 -218 -38
80 c-20 44 -66 142 -101 218 l-64 137 -85 -1 c-67 -1 -79 -3 -56 -10z"/>
<path d="M17450 10453 c59 -12 60 -14 60 -273 0 -259 -1 -262 -60 -273 -14 -2
47 -5 135 -6 177 -1 242 10 304 53 133 93 150 309 33 425 -67 66 -96 73 -312
77 -102 1 -174 0 -160 -3z m315 -42 c112 -51 162 -186 120 -327 -32 -109 -159
-178 -272 -148 l-23 6 0 238 c0 269 -8 247 85 249 29 0 67 -7 90 -18z"/>
<path d="M18079 10450 c18 -4 37 -14 42 -22 5 -7 9 -119 9 -249 0 -258 -1
-261 -60 -272 -14 -2 76 -4 199 -3 l224 1 23 68 c12 37 19 67 15 67 -5 0 -20
-18 -35 -40 -40 -60 -70 -71 -184 -68 l-97 3 -3 123 -3 122 88 0 c48 0 95 -5
103 -10 8 -5 20 -24 27 -42 10 -29 11 -22 11 67 0 89 -1 96 -11 67 -7 -18 -19
-37 -27 -42 -8 -5 -54 -10 -102 -10 l-88 0 0 110 0 110 100 0 c116 0 145 -10
160 -56 7 -19 16 -34 21 -34 11 0 11 12 3 74 l-7 46 -221 -1 c-134 -1 -208 -4
-187 -9z"/>
<path d="M6170 6575 c-8 -2 -55 -9 -105 -15 -211 -28 -465 -116 -666 -231
-400 -229 -692 -562 -871 -994 -63 -152 -84 -222 -108 -365 -38 -220 -47 -511
-20 -610 5 -19 12 -70 15 -112 4 -48 12 -81 21 -89 8 -6 14 -28 14 -49 0 -38
28 -140 55 -197 8 -17 15 -36 15 -41 0 -6 5 -14 11 -18 8 -4 10 10 8 47 l-4
54 55 5 55 5 9 42 c8 33 16 44 37 52 20 7 30 5 42 -7 15 -14 17 -14 23 1 3 9
15 17 25 17 22 0 24 -9 5 -35 -7 -11 -16 -32 -20 -47 -3 -15 -17 -35 -31 -44
-35 -23 -31 -42 8 -46 29 -3 32 -6 35 -40 2 -29 0 -38 -12 -38 -9 0 -16 4 -16
9 0 5 -9 13 -20 16 -11 3 -20 13 -20 20 0 34 -52 22 -102 -23 -15 -14 -33 -22
-41 -19 -22 8 -10 -67 19 -123 13 -25 24 -48 24 -53 0 -18 74 -117 87 -117 19
0 83 82 83 107 0 10 -46 -10 -57 -25 -17 -21 -31 -6 -15 16 6 9 18 32 26 49 8
18 20 38 26 45 11 13 31 43 80 121 31 49 50 58 50 23 0 -13 4 -28 10 -31 15
-9 68 22 75 44 3 11 16 23 28 26 12 4 37 13 56 22 49 22 65 2 26 -35 -16 -15
-33 -26 -38 -24 -13 4 -47 -18 -47 -31 0 -7 -28 -25 -63 -42 -60 -29 -137 -93
-137 -114 0 -18 15 -13 63 24 25 19 52 35 60 35 8 0 43 13 78 29 35 16 72 31
82 35 9 3 20 14 24 23 7 21 43 52 59 53 7 0 11 -8 10 -17 -1 -13 7 -19 27 -21
36 -4 39 -42 3 -42 -27 0 -42 -15 -26 -25 22 -14 9 -27 -20 -22 -29 6 -43 -7
-18 -15 15 -5 -16 -58 -33 -58 -13 0 -79 -52 -79 -62 0 -14 47 -8 60 7 7 8 19
15 27 15 27 0 72 30 79 52 4 13 12 26 18 30 20 13 66 9 72 -7 4 -8 17 -15 30
-15 28 0 29 -3 10 -33 -21 -33 -31 -88 -15 -85 20 5 22 -28 2 -51 -9 -12 -25
-21 -34 -21 -9 0 -19 -7 -23 -15 -8 -22 17 -19 72 9 26 13 72 27 102 31 30 3
65 11 78 18 17 8 31 8 54 -1 17 -6 35 -9 39 -6 5 3 19 -4 31 -15 12 -12 25
-21 29 -21 4 0 10 -8 14 -18 3 -11 17 -24 31 -31 26 -11 27 -19 11 -61 -4 -10
6 -23 29 -37 57 -37 91 -26 78 24 -3 11 2 25 11 33 15 12 29 8 31 -11 1 -5 2
-14 3 -19 0 -6 12 -16 26 -22 17 -7 25 -19 25 -35 0 -13 5 -34 11 -45 11 -21
12 -21 25 -3 13 17 14 17 20 1 4 -10 7 -34 8 -55 1 -42 25 -50 41 -13 7 16 18
22 42 22 26 0 34 5 39 25 3 14 3 37 0 51 -8 30 8 54 34 54 23 0 41 -23 49 -62
4 -17 12 -33 20 -36 10 -3 12 11 10 68 -4 75 -2 79 47 94 19 6 20 3 20 -63 -1
-88 13 -107 51 -69 21 21 26 37 27 77 1 33 7 56 18 67 16 16 18 16 29 -10 9
-18 19 -26 33 -24 15 2 22 -3 24 -19 2 -12 10 -27 19 -34 13 -11 14 -8 12 30
-3 37 0 45 23 58 24 15 29 15 71 -5 24 -11 53 -33 64 -48 27 -36 45 -27 68 33
9 26 28 58 41 71 13 13 24 32 24 43 0 28 28 79 43 79 14 0 37 -20 37 -32 0 -4
-7 -8 -15 -8 -9 0 -15 -9 -15 -21 0 -16 5 -20 19 -16 10 2 29 -4 42 -14 22
-17 99 -27 99 -14 0 19 -32 63 -50 68 -27 7 -26 24 3 33 30 11 45 7 82 -22 33
-25 65 -32 65 -14 0 6 8 10 18 10 23 0 57 35 44 44 -6 3 -13 0 -16 -6 -3 -7
-3 1 1 17 3 17 7 32 9 33 8 10 47 -13 56 -33 25 -55 60 -39 79 36 12 44 16 49
41 49 21 0 28 5 28 19 0 10 -9 21 -20 24 -28 7 -25 27 5 27 29 0 30 5 10 53
-26 64 -21 82 32 108 26 13 65 24 86 25 23 1 47 10 61 23 12 12 28 21 34 21
19 0 14 18 -7 30 -13 6 -22 7 -26 0 -8 -13 -55 18 -55 36 0 17 12 18 27 3 7
-7 17 -2 32 20 13 17 29 31 37 31 8 0 12 5 9 10 -3 6 5 14 20 20 17 6 27 20
32 41 3 19 15 35 29 41 22 10 22 12 8 39 -8 17 -23 29 -34 29 -10 0 -22 5 -25
10 -4 6 7 10 25 10 21 0 38 8 51 23 24 28 24 40 -1 62 -28 25 -25 50 8 73 l27
21 -20 38 c-10 21 -24 44 -30 52 -5 8 -11 33 -11 55 -1 23 -5 54 -9 69 -7 24
-2 33 29 61 41 39 44 51 15 66 -16 9 -19 18 -15 36 5 19 2 24 -12 24 -10 0
-29 11 -42 25 -19 20 -30 24 -52 20 -26 -6 -30 -3 -45 32 -31 72 -14 101 68
114 39 6 59 16 76 35 29 34 29 38 -3 30 -24 -6 -25 -5 -22 26 3 30 0 33 -24
36 -22 3 -28 9 -28 28 0 13 4 24 9 24 5 0 12 9 16 19 3 10 19 24 35 31 17 7
30 19 30 26 0 19 -64 18 -80 -1 -20 -24 -37 -17 -59 25 -19 38 -20 42 -5 64 8
14 22 27 30 30 17 6 19 53 2 58 -21 7 -1 35 43 57 42 22 139 114 139 132 0 14
-11 11 -46 -16 -18 -14 -54 -34 -79 -45 -25 -11 -56 -31 -69 -45 -13 -14 -36
-27 -52 -29 -16 -3 -47 -10 -69 -17 -22 -7 -64 -12 -93 -12 -45 1 -57 5 -78
30 -29 34 -29 34 -4 66 11 14 20 32 20 40 0 34 11 43 42 39 28 -4 67 -35 68
-54 0 -4 -7 -14 -16 -23 -13 -12 -14 -19 -4 -30 18 -22 37 -19 94 14 28 16 64
29 79 29 16 0 39 10 53 23 21 20 24 31 22 74 -3 47 -5 50 -31 53 -16 2 -37 12
-48 23 -10 10 -26 19 -34 19 -8 0 -25 20 -36 46 -22 47 -23 44 9 106 2 3 -9
17 -24 31 -28 26 -28 57 1 57 10 0 15 -10 15 -30 0 -31 8 -35 58 -31 12 1 51
-5 87 -14 35 -9 75 -15 87 -13 22 3 20 6 -22 52 -42 46 -81 75 -154 119 -17
11 -40 27 -51 36 -59 52 -226 148 -340 196 -58 24 -232 81 -290 94 -183 40
-215 44 -440 47 -126 1 -237 1 -245 -1z m197 -310 c86 -20 154 -56 195 -104
58 -68 83 -170 58 -237 -10 -25 -11 -26 -24 -9 -13 17 -14 17 -31 -8 -9 -15
-22 -27 -27 -27 -17 0 -202 -83 -223 -100 -11 -9 -40 -25 -65 -36 -47 -20
-166 -94 -261 -163 -31 -23 -60 -41 -65 -41 -17 0 -94 -42 -94 -52 0 -14 -51
-58 -67 -58 -6 0 -20 -11 -31 -24 -13 -17 -26 -23 -39 -20 -14 4 -25 -2 -37
-20 -9 -14 -23 -26 -30 -26 -8 0 -16 -7 -20 -15 -3 -8 -17 -15 -31 -15 -19 0
-25 -5 -25 -23 0 -29 -18 -47 -47 -47 -21 0 -48 -31 -37 -43 3 -3 3 -15 -1
-27 -6 -18 -13 -21 -38 -17 -25 3 -37 -2 -65 -31 -30 -29 -33 -37 -23 -53 16
-26 -12 -69 -45 -69 -37 0 -94 -27 -94 -44 0 -9 11 -18 25 -22 29 -7 28 -30
-1 -27 -52 7 -89 -28 -45 -42 20 -6 33 -38 25 -60 -3 -7 -16 -17 -29 -23 -13
-6 -36 -31 -51 -54 -15 -24 -28 -45 -30 -47 -2 -3 -14 5 -27 17 -14 13 -36 22
-56 22 -83 0 -179 94 -206 205 -43 171 23 421 167 635 194 287 461 501 784
629 236 93 431 118 611 76z m-258 -905 c89 -55 163 -100 166 -100 2 0 28 -15
57 -33 29 -19 60 -37 68 -40 8 -4 22 -11 30 -17 33 -22 291 -170 297 -170 4 0
14 -6 22 -14 9 -7 39 -26 66 -41 28 -15 73 -40 100 -56 28 -15 129 -74 225
-131 192 -114 216 -138 190 -185 -8 -15 -37 -40 -65 -56 -105 -63 -331 -193
-345 -200 -8 -4 -28 -16 -45 -26 -16 -11 -48 -29 -70 -41 -42 -24 -358 -207
-650 -378 -242 -142 -228 -136 -263 -118 -15 8 -33 26 -39 39 -8 18 -12 255
-14 821 l-2 797 23 24 c42 44 72 35 249 -75z"/>
<path d="M7952 5680 c-12 -28 -22 -56 -22 -63 0 -30 -122 -117 -163 -117 -17
0 -47 -42 -47 -65 0 -26 31 -31 51 -7 9 12 24 22 33 22 9 0 16 5 16 11 0 5 13
15 29 20 16 6 32 17 35 25 7 17 46 19 46 2 0 -7 -13 -20 -29 -30 -16 -9 -34
-26 -40 -37 -11 -20 -9 -21 28 -21 75 0 140 49 157 116 4 16 13 39 21 50 12
20 10 28 -24 82 -21 34 -45 61 -54 62 -9 0 -24 -20 -37 -50z"/>
<path d="M9425 5683 c-96 -29 -149 -109 -161 -245 -7 -84 -6 -83 -74 -90 -19
-2 -26 -10 -28 -32 -7 -58 4 -75 51 -78 l42 -3 5 -310 5 -310 84 -5 c45 -3 87
-2 93 1 6 4 9 120 8 306 0 239 2 302 13 311 7 6 49 12 92 14 l80 3 0 50 0 50
-83 5 c-107 6 -117 21 -91 139 14 68 53 101 117 101 26 0 60 -7 76 -15 35 -18
56 -19 57 -2 6 53 4 88 -5 96 -41 31 -198 39 -281 14z"/>
<path d="M9850 5675 c0 -3 -1 -242 -1 -532 l0 -528 82 -3 c45 -2 86 1 91 6 6
6 12 776 8 1050 0 9 -25 12 -90 12 -49 0 -90 -2 -90 -5z"/>
<path d="M13168 5673 c-3 -4 -4 -244 -4 -533 l1 -525 90 0 90 0 0 530 0 530
-87 3 c-47 1 -88 -1 -90 -5z"/>
<path d="M8114 5495 c-8 -20 -116 -93 -151 -101 -15 -4 -46 -16 -68 -27 -22
-11 -46 -23 -54 -27 -22 -10 -35 -35 -28 -54 11 -29 63 -19 120 22 29 22 66
46 84 55 33 17 123 116 123 136 0 16 -20 14 -26 -4z"/>
<path d="M8141 5413 c-8 -20 -24 -47 -36 -59 -12 -12 -25 -33 -28 -46 -10 -38
-32 -62 -52 -55 -12 5 -15 14 -11 31 10 41 -9 38 -55 -7 -49 -47 -147 -110
-159 -102 -10 6 -60 -15 -60 -26 0 -4 -16 -13 -35 -19 -36 -12 -55 -44 -36
-63 9 -9 23 -6 56 12 25 13 45 28 45 33 0 6 11 7 26 4 17 -5 36 0 60 14 20 13
55 23 86 25 29 1 57 3 61 4 5 0 6 14 2 30 -8 38 13 45 48 15 15 -13 27 -26 27
-29 0 -4 -16 -27 -37 -51 -34 -43 -35 -45 -15 -50 11 -4 23 -13 26 -21 8 -19
26 -7 26 16 0 10 7 25 16 32 25 20 65 109 49 109 -27 0 -34 90 -9 114 21 22
33 20 27 -4 -4 -14 1 -22 20 -29 13 -5 27 -19 30 -31 6 -25 27 -18 27 8 0 24
-38 131 -56 160 -20 30 -28 28 -43 -15z"/>
<path d="M16222 5364 c-63 -16 -88 -32 -136 -85 -20 -22 -42 -39 -49 -36 -6 2
-13 21 -13 43 -1 21 -2 45 -3 52 -1 10 -23 12 -88 10 l-88 -3 -5 -358 c-3
-220 -1 -362 5 -368 14 -14 175 -12 176 4 0 6 0 110 -1 229 -1 248 0 254 77
311 63 46 124 64 159 48 14 -6 30 -9 35 -6 14 9 11 162 -3 168 -7 2 -37 -2
-66 -9z"/>
<path d="M10452 5355 c-92 -23 -174 -90 -219 -182 -27 -55 -28 -65 -28 -193 0
-128 2 -138 28 -192 61 -124 189 -198 342 -198 237 0 385 154 385 399 0 76 -4
95 -35 165 -40 91 -50 104 -123 153 -91 60 -225 78 -350 48z m221 -135 c63
-56 87 -122 87 -239 0 -145 -36 -227 -117 -263 -52 -23 -119 -17 -158 14 -58
46 -102 181 -91 283 8 79 21 119 58 172 36 53 70 72 129 73 40 0 52 -5 92 -40z"/>
<path d="M12603 5345 c-28 -14 -63 -41 -78 -60 -14 -19 -35 -35 -45 -35 -15 0
-19 9 -22 48 l-3 47 -90 0 -90 0 -3 -485 c-1 -267 0 -495 3 -508 5 -22 9 -23
93 -20 l87 3 3 160 c1 88 7 164 12 169 6 6 21 2 40 -13 117 -86 282 -79 371
16 88 93 119 180 119 333 0 127 -20 196 -77 271 -49 65 -107 93 -198 96 -59 3
-78 -1 -122 -22z m97 -130 c16 -8 40 -30 54 -47 76 -102 57 -340 -35 -423 -34
-31 -46 -35 -92 -35 -42 0 -63 6 -99 29 -26 16 -51 39 -57 50 -7 11 -11 82
-11 168 l0 149 48 46 c79 76 132 94 192 63z"/>
<path d="M13695 5357 c-34 -7 -75 -19 -93 -26 -30 -13 -32 -16 -32 -66 0 -61
6 -70 34 -52 69 45 218 62 276 32 42 -22 62 -65 58 -128 l-3 -52 -100 -11
c-120 -14 -146 -20 -205 -49 -84 -43 -130 -115 -130 -207 0 -78 56 -163 129
-194 72 -30 182 -10 253 46 46 38 62 38 89 0 30 -40 77 -60 141 -60 69 0 98
19 98 66 0 29 -6 38 -34 55 -20 11 -39 33 -45 51 -7 18 -11 115 -11 235 0 229
-5 254 -66 310 -20 18 -53 38 -73 44 -55 16 -218 20 -286 6z m233 -409 c7 -7
12 -41 12 -85 0 -62 -3 -75 -22 -93 -33 -31 -93 -60 -123 -60 -61 0 -115 55
-115 116 0 30 39 88 71 104 47 26 158 37 177 18z"/>
<path d="M15257 5355 c-26 -7 -72 -32 -102 -54 -100 -76 -135 -156 -135 -311
0 -161 31 -237 127 -315 65 -53 130 -75 240 -82 89 -6 264 19 282 40 9 11 14
58 12 101 -1 14 -6 17 -23 13 -162 -40 -209 -45 -286 -25 -62 15 -123 77 -147
147 -27 82 -31 81 233 81 l225 0 -7 80 c-19 232 -119 342 -310 339 -34 0 -83
-7 -109 -14z m173 -115 c43 -30 79 -143 57 -174 -10 -14 -31 -17 -134 -18 -66
0 -126 3 -132 6 -28 18 3 109 55 163 35 38 46 43 83 43 27 0 53 -8 71 -20z"/>
<path d="M11058 5338 c-5 -13 0 -30 81 -312 34 -114 61 -214 61 -222 0 -14 34
-130 51 -172 9 -22 13 -23 101 -20 l92 3 22 85 c35 135 114 384 125 395 12 12
39 -20 39 -47 0 -18 80 -318 105 -393 l13 -40 87 0 c68 0 90 3 95 15 15 28 64
192 121 400 12 47 40 135 60 195 21 61 34 114 30 118 -5 5 -32 7 -62 5 l-54
-3 -33 -100 c-40 -119 -57 -175 -83 -275 -10 -41 -23 -85 -29 -97 -11 -27 -37
-30 -44 -5 -41 142 -78 281 -91 339 -8 40 -21 89 -30 108 l-14 36 -82 -3 -82
-3 -13 -50 c-8 -27 -23 -81 -33 -120 -10 -38 -36 -126 -58 -195 -32 -103 -42
-125 -58 -125 -19 0 -26 19 -59 160 -22 96 -87 309 -98 323 -14 16 -155 17
-160 0z"/>
<path d="M14230 5338 c0 -13 44 -128 84 -221 9 -21 16 -44 16 -51 0 -12 63
-181 90 -241 5 -11 25 -67 44 -123 l36 -104 -37 -61 c-21 -34 -57 -90 -80
-123 -24 -34 -43 -67 -43 -73 0 -8 26 -11 87 -9 87 3 87 3 110 36 12 19 31 58
42 88 12 30 43 100 70 156 27 57 61 132 76 168 15 36 53 119 85 185 31 66 61
131 65 145 4 14 29 70 56 124 29 58 46 103 41 108 -5 5 -36 8 -68 6 -68 -3
-63 3 -136 -176 -21 -53 -54 -128 -73 -167 -19 -38 -38 -83 -43 -100 -6 -22
-15 -30 -32 -30 -20 0 -26 8 -36 45 -6 25 -32 96 -57 157 -26 62 -55 143 -67
180 -11 36 -25 72 -31 80 -15 17 -199 19 -199 1z"/>
<path d="M8250 5167 c22 -66 26 -104 16 -136 -6 -18 -3 -29 18 -48 29 -27 31
-39 15 -94 -10 -30 -9 -47 4 -86 8 -26 13 -62 10 -79 -4 -23 1 -38 20 -60 20
-23 27 -26 31 -14 7 18 -8 210 -23 295 -12 67 -49 195 -61 210 -5 6 -10 21
-12 35 -1 14 -10 26 -19 28 -15 3 -15 -2 1 -51z"/>
<path d="M8010 5016 c-21 -19 -112 -26 -141 -10 -13 7 -40 13 -59 13 -31 0
-32 -1 -12 -9 26 -11 29 -36 5 -62 -9 -10 -13 -21 -10 -24 9 -9 86 -26 126
-27 30 -2 35 2 46 33 10 30 17 36 51 40 34 4 39 9 42 33 3 21 -1 27 -15 27
-10 0 -25 -6 -33 -14z"/>
<path d="M5010 3710 c-8 -5 -27 -10 -41 -10 -41 0 -95 -61 -102 -115 -8 -52 6
-95 28 -95 16 0 105 85 105 100 0 4 -9 10 -20 13 -34 9 -24 43 18 64 20 11 38
27 40 36 4 19 -6 21 -28 7z"/>
</g>
</svg>
